<?xml version="1.0" encoding="UTF-8"?>
<svg version="1.1" xmlns="http://www.w3.org/2000/svg" width="117" height="108">
<path d="M0 0 C38.61 0 77.22 0 117 0 C117 35.64 117 71.28 117 108 C78.39 108 39.78 108 0 108 C0 72.36 0 36.72 0 0 Z " fill="#FDFEFD" transform="translate(0,0)"/>
<path d="M0 0 C4.07977427 1.45575154 7.57545929 3.72376033 11.21899414 6.0168457 C14.94141201 8.34587868 18.66698585 10.50313632 22.58984375 12.48046875 C32.45735047 17.63137081 32.45735047 17.63137081 35.60546875 20.9296875 C37.09166483 25.91431765 36.79394214 29.90435249 35.60546875 34.9296875 C33.9960837 34.08422389 32.3871815 33.23783034 30.78051758 32.38720703 C29.40569011 31.66123525 28.02786622 30.94091181 26.6472168 30.22607422 C22.61437315 28.11118092 19.06349108 25.79927059 15.41796875 23.0546875 C12.36968737 21.20358594 11.28850695 20.76318511 7.78515625 21.6171875 C4.72445934 23.01445149 4.72445934 23.01445149 1.7890625 24.96875 C-1.39453125 26.9296875 -1.39453125 26.9296875 -5.046875 28.078125 C-9.24819038 29.65646932 -12.13229229 31.03004499 -14.39453125 34.9296875 C-17.34490719 44.47100609 -17.93689329 55.48740046 -14.39453125 64.9296875 C-8.99553622 71.36928091 -1.26200925 74.47363765 6.39233398 77.51196289 C9.83618422 79.03148559 12.81265168 80.9083393 15.96875 82.953125 C20.31224882 85.66513731 20.31224882 85.66513731 25.3203125 85.28515625 C26.38378906 84.56972656 27.44726562 83.85429688 28.54296875 83.1171875 C29.79510076 82.32867682 31.04773782 81.54096777 32.30078125 80.75390625 C32.97399414 80.3057959 33.64720703 79.85768555 34.34082031 79.39599609 C38.74799346 76.54245125 43.35383524 74.02129559 47.91796875 71.4296875 C48.84407959 70.88981201 49.77019043 70.34993652 50.72436523 69.79370117 C51.58876221 69.29201416 52.45315918 68.79032715 53.34375 68.2734375 C54.5045105 67.59571289 54.5045105 67.59571289 55.6887207 66.90429688 C57.60546875 65.9296875 57.60546875 65.9296875 59.60546875 65.9296875 C59.17355241 67.45211601 58.73459313 68.97254669 58.29296875 70.4921875 C58.04933594 71.33910156 57.80570312 72.18601562 57.5546875 73.05859375 C57.24144531 74.00605469 56.92820312 74.95351562 56.60546875 75.9296875 C56.31671875 77.06019531 56.02796875 78.19070312 55.73046875 79.35546875 C53.27984192 84.92535116 47.07076437 86.99208361 41.91796875 89.5546875 C39.78788752 90.64875708 37.65895687 91.74506999 35.53125 92.84375 C34.51168213 93.36267822 33.49211426 93.88160645 32.44165039 94.41625977 C29.94147411 95.75039016 27.60489894 97.18062517 25.24609375 98.74609375 C21.90313881 100.89578684 19.03025716 101.75784204 15.04296875 102.2421875 C13.98980469 102.38269531 12.93664063 102.52320312 11.8515625 102.66796875 C5.35587084 103.19168878 1.2823112 103.27297634 -4.37109375 99.75390625 C-5.45390625 99.09068359 -6.53671875 98.42746094 -7.65234375 97.74414062 C-8.76351562 97.04224609 -9.8746875 96.34035156 -11.01953125 95.6171875 C-12.1384375 94.92689453 -13.25734375 94.23660156 -14.41015625 93.52539062 C-16.49213996 92.23967873 -18.57024401 90.94764695 -20.64306641 89.6472168 C-22.45808 88.51424247 -24.28842888 87.40542582 -26.1340332 86.32299805 C-28.57779477 84.81672877 -30.11789822 83.24799233 -31.95703125 81.0546875 C-32.51519531 80.39726563 -33.07335937 79.73984375 -33.6484375 79.0625 C-34.51275391 78.00675781 -34.51275391 78.00675781 -35.39453125 76.9296875 C-36.07813721 76.23061279 -36.76174316 75.53153809 -37.46606445 74.8112793 C-39.94105879 71.1130443 -40.0064871 67.99744038 -39.99609375 63.69140625 C-40.004664 62.89297806 -40.01323425 62.09454987 -40.02206421 61.27192688 C-40.03353026 59.5800046 -40.03456624 57.88798375 -40.02587891 56.19604492 C-40.01964174 53.6620775 -40.06617828 51.13298476 -40.1171875 48.59960938 C-40.20881256 38.07394673 -39.6752093 26.83566074 -33.39453125 17.9296875 C-29.40848556 14.29095234 -25.16566851 11.96861457 -20.33203125 9.6171875 C-19.14666293 8.99745609 -17.96369276 8.37311542 -16.78320312 7.74414062 C-14.61854457 6.60439171 -12.44311158 5.48467908 -10.25366211 4.39331055 C-7.37350738 2.96878246 -7.37350738 2.96878246 -4.67138672 1.23706055 C-2.39453125 -0.0703125 -2.39453125 -0.0703125 0 0 Z " fill="#52AC4C" transform="translate(47.39453125,5.0703125)"/>
<path d="M0 0 C1.67107084 1.1731833 3.31329937 2.38774129 4.9375 3.625 C6.91321717 4.84010757 8.91542919 6.00252507 10.92163086 7.16650391 C19.4211865 12.1086865 19.4211865 12.1086865 20.9375 13.625 C21.29974714 17.8248603 21.37977022 22.03009241 21.45239258 26.24316406 C21.48398113 27.65768331 21.53168641 29.07193971 21.59594727 30.48535156 C22.1202603 42.17630021 22.1202603 42.17630021 19.38696289 45.52416992 C17.29213583 46.8340429 15.23483908 47.72346504 12.9375 48.625 C11.62511555 49.41679183 10.32871376 50.23575958 9.05078125 51.08203125 C7.78429671 51.86790114 6.51737136 52.65306109 5.25 53.4375 C4.61255859 53.84419922 3.97511719 54.25089844 3.31835938 54.66992188 C-0.3722314 56.93607411 -2.75104593 58.0998848 -7.0625 57.625 C-9.63378906 56.44750977 -9.63378906 56.44750977 -12.328125 54.81640625 C-13.30007812 54.23439453 -14.27203125 53.65238281 -15.2734375 53.05273438 C-16.27632812 52.43720703 -17.27921875 51.82167969 -18.3125 51.1875 C-19.33085938 50.57583984 -20.34921875 49.96417969 -21.3984375 49.33398438 C-28.84821429 44.83928571 -28.84821429 44.83928571 -30.0625 43.625 C-30.44912383 39.44393944 -30.54761456 35.25781662 -30.63232422 31.06176758 C-30.66889082 29.6539536 -30.72337402 28.24648274 -30.79638672 26.84008789 C-31.39087753 15.21190235 -31.39087753 15.21190235 -28.29370117 11.51196289 C-25.95528637 9.94925413 -23.62008235 8.78861428 -21.0625 7.625 C-19.70508303 6.73732326 -18.36159772 5.82786068 -17.03515625 4.89453125 C-5.35685988 -2.6425981 -5.35685988 -2.6425981 0 0 Z " fill="#FEFEFE" transform="translate(62.0625,26.375)"/>
<path d="M0 0 C17.16 0 34.32 0 52 0 C52 35.64 52 71.28 52 108 C31.87 108 11.74 108 -9 108 C-9 107.67 -9 107.34 -9 107 C-7.95779297 106.99226563 -7.95779297 106.99226563 -6.89453125 106.984375 C4.4807991 106.11933087 12.96774871 100.32169768 22.50585938 94.50537109 C24.99045975 93.00575814 27.49107112 91.54456809 30.015625 90.11328125 C31.09505371 89.50093628 31.09505371 89.50093628 32.19628906 88.8762207 C34 88 34 88 36 88 C36.268125 87.01 36.53625 86.02 36.8125 85 C37.56721777 82.30757788 38.4487098 79.92268228 39.53393555 77.31713867 C41.2238645 72.83568166 41.54918722 68.68424939 41.64453125 63.92578125 C41.66400314 63.08009079 41.68347504 62.23440033 41.70353699 61.36308289 C41.73606739 59.58244087 41.75996918 57.80162219 41.77563477 56.02075195 C41.81220767 53.33397577 41.91821715 50.65546035 42.02539062 47.97070312 C42.25118363 37.55440898 41.16678512 30.27644024 33.81860352 22.55053711 C29.84112761 18.95134346 25.90310045 16.39845798 21.0625 14.125 C19.31773419 13.23557203 17.57423428 12.34365626 15.83203125 11.44921875 C15.00396973 11.03462402 14.1759082 10.6200293 13.32275391 10.19287109 C10.19178628 8.5849346 7.2294898 6.81175752 4.25 4.9375 C3.40953125 4.41027344 2.5690625 3.88304687 1.703125 3.33984375 C1.14109375 2.89769531 0.5790625 2.45554688 0 2 C0 1.34 0 0.68 0 0 Z " fill="#FEFDFD" transform="translate(65,0)"/>
<path d="M0 0 C8.40224589 -0.69869422 14.27966427 3.34503353 21.19750977 7.63208008 C22.36101897 8.33135349 23.52572777 9.02863496 24.69165039 9.72387695 C27.7683652 11.56990584 30.82786644 13.44140321 33.88500977 15.31958008 C34.72136963 15.7759082 35.55772949 16.23223633 36.41943359 16.70239258 C42.26921483 20.53930226 47.78966435 26.5996255 49.40808105 33.57354736 C50.10615763 39.42698732 49.80262972 45.26035699 49.51000977 51.13208008 C49.45972859 52.90343707 49.41412258 54.6749332 49.37329102 56.4465332 C49.2642937 60.74105297 49.09248192 65.02873681 48.88500977 69.31958008 C45.24153101 71.34652333 41.59771544 73.37285948 37.95361328 75.39868164 C36.71915004 76.0850464 35.48477218 76.77156473 34.25048828 77.45825195 C33.6561499 77.78889648 33.06181152 78.11954102 32.44946289 78.46020508 C31.85696243 78.79019501 31.26446198 79.12018494 30.65400696 79.46017456 C29.46160933 80.12167839 28.26725263 80.77966316 27.07096863 81.43411255 C24.25770895 82.97613609 21.50004385 84.56012704 18.77880859 86.26049805 C16.17019007 87.85214469 13.75542366 89.27155279 10.88500977 90.31958008 C7.18579102 89.37426758 7.18579102 89.37426758 4.19750977 87.19458008 C2.67577148 86.13883789 2.67577148 86.13883789 1.12329102 85.06176758 C0.0153418 84.19938477 0.0153418 84.19938477 -1.11499023 83.31958008 C1.75892641 81.07687792 4.69950923 79.1991627 7.86938477 77.40161133 C8.71210937 76.92183838 9.55483398 76.44206543 10.4230957 75.94775391 C11.48302734 75.34858154 12.54295898 74.74940918 13.63500977 74.13208008 C17.01750977 72.21395508 20.40000977 70.29583008 23.88500977 68.31958008 C23.88500977 53.79958008 23.88500977 39.27958008 23.88500977 24.31958008 C15.77938517 19.65231846 15.77938517 19.65231846 7.67260742 14.98706055 C2.44745665 11.97547216 -2.77257303 8.95498184 -7.96655273 5.88989258 C-9.17432373 5.17857178 -9.17432373 5.17857178 -10.40649414 4.45288086 C-10.97029785 4.0788916 -11.53410156 3.70490234 -12.11499023 3.31958008 C-12.11499023 2.98958008 -12.11499023 2.65958008 -12.11499023 2.31958008 C-10.65979348 1.97280979 -9.20052218 1.64314408 -7.73999023 1.31958008 C-6.52182617 1.04114258 -6.52182617 1.04114258 -5.27905273 0.75708008 C-3.51811883 0.51359292 -1.75773489 0.26559794 0 0 Z " fill="#F9B015" transform="translate(58.114990234375,1.680419921875)"/>
<path d="M0 0 C4.57699758 1.36714391 8.44191119 3.23151658 12.5703125 5.625 C13.47558182 6.14634521 13.47558182 6.14634521 14.3991394 6.67822266 C16.31075874 7.78038638 18.21799587 8.88987358 20.125 10 C22.03998926 11.10860189 23.955858 12.21566106 25.87228394 13.32177734 C27.60668559 14.32379736 29.33880639 15.32976225 31.07080078 16.3359375 C32.03743652 16.88507813 33.00407227 17.43421875 34 18 C34.68690918 18.45431396 35.37381836 18.90862793 36.08154297 19.37670898 C38.08381495 20.24390013 38.08381495 20.24390013 40.375 19.14477539 C41.24125 18.63422607 42.1075 18.12367676 43 17.59765625 C43.96462158 17.03973389 44.92924316 16.48181152 45.9230957 15.90698242 C46.93847412 15.29830322 47.95385254 14.68962402 49 14.0625 C50.03278076 13.46091064 51.06556152 12.85932129 52.12963867 12.23950195 C55.09577866 10.50830002 58.04947495 8.75764824 61 7 C63.435648 5.55931501 65.87367301 4.12280477 68.3125 2.6875 C69.63701172 1.88892578 69.63701172 1.88892578 70.98828125 1.07421875 C73 0 73 0 75 0 C74.56808366 1.52242851 74.12912438 3.04285919 73.6875 4.5625 C73.44386719 5.40941406 73.20023437 6.25632812 72.94921875 7.12890625 C72.63597656 8.07636719 72.32273437 9.02382812 72 10 C71.56880859 11.69382812 71.56880859 11.69382812 71.12890625 13.421875 C68.67011104 19.01226251 62.41709779 21.10701218 57.25 23.6875 C55.10918973 24.79521493 52.96856014 25.90327913 50.828125 27.01171875 C49.30928711 27.77814697 49.30928711 27.77814697 47.75976562 28.56005859 C45.44156402 29.76960858 43.25516502 31.06279397 41.046875 32.45703125 C37.45688023 34.27504142 36.75006333 34.13881365 33 33 C30.70413061 31.82064293 28.51679905 30.61284015 26.30859375 29.2890625 C25.68146988 28.9202597 25.05434601 28.55145691 24.40821838 28.17147827 C23.0876215 27.39307287 21.76904424 26.61123207 20.45239258 25.82617188 C18.44459703 24.62923087 16.43097373 23.44264818 14.41601562 22.2578125 C13.12985494 21.4979937 11.84403593 20.7375962 10.55859375 19.9765625 C9.96058456 19.62332916 9.36257538 19.27009583 8.7464447 18.90615845 C2.28145989 15.04548249 2.28145989 15.04548249 0 13 C-0.390625 9.86328125 -0.390625 9.86328125 -0.25 6.3125 C-0.21390625 5.13300781 -0.1778125 3.95351562 -0.140625 2.73828125 C-0.09421875 1.83464844 -0.0478125 0.93101563 0 0 Z " fill="#216797" transform="translate(32,71)"/>
<path d="M0 0 C4.07977427 1.45575154 7.57545929 3.72376033 11.21899414 6.0168457 C14.94141201 8.34587868 18.66698585 10.50313632 22.58984375 12.48046875 C32.45735047 17.63137081 32.45735047 17.63137081 35.60546875 20.9296875 C37.09166483 25.91431765 36.79394214 29.90435249 35.60546875 34.9296875 C33.53690152 33.87792751 31.47537346 32.81550228 29.41796875 31.7421875 C28.76320557 31.4013916 28.10844238 31.0605957 27.43383789 30.70947266 C23.21039554 28.460671 19.15817631 26.03971975 15.14453125 23.43359375 C14.21664795 22.83506592 13.28876465 22.23653809 12.33276367 21.61987305 C10.49072176 20.42134486 8.65976198 19.20558809 6.84106445 17.97192383 C5.98859131 17.41915771 5.13611816 16.8663916 4.2578125 16.296875 C3.50491943 15.79269043 2.75202637 15.28850586 1.97631836 14.76904297 C-1.45093544 13.55568713 -3.10938412 14.48236155 -6.39453125 15.9296875 C-8.61194986 17.08713315 -10.80089477 18.30011566 -12.96484375 19.5546875 C-13.56835663 19.90225098 -14.17186951 20.24981445 -14.79367065 20.60791016 C-16.70528999 21.71007388 -18.61252712 22.81956108 -20.51953125 23.9296875 C-22.43452051 25.03828939 -24.35038925 26.14534856 -26.26681519 27.25146484 C-28.00121684 28.25348486 -29.73333764 29.25944975 -31.46533203 30.265625 C-33.74965725 31.56333801 -36.02885666 32.79036596 -38.39453125 33.9296875 C-38.07005486 32.26127389 -37.73462574 30.59498766 -37.39453125 28.9296875 C-37.2236499 28.06730469 -37.05276855 27.20492187 -36.87670898 26.31640625 C-35.17661699 20.08217174 -33.00950595 17.11409899 -27.4921875 13.6796875 C-25.15820291 12.39169827 -22.82588804 11.14733316 -20.45703125 9.9296875 C-19.2632776 9.28568668 -18.0712006 8.63856781 -16.88085938 7.98828125 C-14.69072351 6.80087313 -12.49299691 5.62727774 -10.28540039 4.47265625 C-8.37719941 3.45417553 -6.50153768 2.37192621 -4.66699219 1.22607422 C-2.39453125 -0.0703125 -2.39453125 -0.0703125 0 0 Z " fill="#1F6697" transform="translate(47.39453125,5.0703125)"/>
<path d="M0 0 C0 14.19 0 28.38 0 43 C1.65 43.66 3.3 44.32 5 45 C6.99400652 46.0803865 8.96935522 47.19558917 10.9296875 48.3359375 C12.05503906 48.98820312 13.18039063 49.64046875 14.33984375 50.3125 C15.51828824 50.99989873 16.69667324 51.68739947 17.875 52.375 C19.04539127 53.05500024 20.21596269 53.73469051 21.38671875 54.4140625 C23.61358809 55.70691922 25.83985575 57.00081303 28.06542969 58.29589844 C31.36785533 60.21361316 34.68016309 62.11262916 38 64 C38 64.33 38 64.66 38 65 C35.98030444 65.34015925 33.95917203 65.67179169 31.9375 66 C30.81214844 66.185625 29.68679687 66.37125 28.52734375 66.5625 C21.89948028 67.38456059 17.75035143 67.38982628 11.98828125 63.7890625 C10.90095703 63.12132812 9.81363281 62.45359375 8.69335938 61.765625 C7.56608321 61.0525938 6.43913292 60.33904715 5.3125 59.625 C4.1747365 58.9178073 3.0360707 58.2120641 1.89648438 57.5078125 C-0.1944504 56.21419432 -2.28113101 54.91365596 -4.36206055 53.60400391 C-6.54211913 52.2784153 -8.71290244 51.12134663 -11 50 C-11.24770796 43.84388556 -11.42887371 37.69068302 -11.54931641 31.53076172 C-11.59952684 29.43714877 -11.66771462 27.34388518 -11.75439453 25.25146484 C-12.45959625 7.7873518 -12.45959625 7.7873518 -8.76464844 3.26269531 C-6.04209838 1.61287071 -3.28160289 0 0 0 Z " fill="#3CA647" transform="translate(31,41)"/>
</svg>
